<svg xmlns="http://www.w3.org/2000/svg" xmlns:xlink="http://www.w3.org/1999/xlink" width="1024" height="1024" viewBox="0 0 1024 1024">
  <defs>
    <linearGradient id="linear-gradient" x1="0.5" x2="0.5" y2="1" gradientUnits="objectBoundingBox">
      <stop offset="0" stop-color="#00a8ff" stop-opacity="0.522"/>
      <stop offset="1" stop-color="#003e5e" stop-opacity="0.522"/>
    </linearGradient>
    <linearGradient id="linear-gradient-2" x1="0.5" x2="0.5" y2="1" gradientUnits="objectBoundingBox">
      <stop offset="0" stop-color="red"/>
      <stop offset="1" stop-color="maroon"/>
    </linearGradient>
  </defs>
  <g id="CommandCapsule" transform="translate(-910.876 -490.876)">
    <g id="Rechteck_1" data-name="Rechteck 1" transform="translate(927.461 507.446)" fill="#5a5a5a" stroke="#2e2e2e" stroke-width="64">
      <rect width="991.798" height="990.86" rx="75" stroke="none"/>
      <rect x="32" y="32" width="927.798" height="926.86" rx="43" fill="none"/>
    </g>
    <g id="Ellipse_1" data-name="Ellipse 1" transform="translate(1105.512 685.328)" stroke="#7b7b7b" stroke-width="30" fill="url(#linear-gradient)">
      <ellipse cx="317.394" cy="317.094" rx="317.394" ry="317.094" stroke="none"/>
      <ellipse cx="317.394" cy="317.094" rx="302.394" ry="302.094" fill="none"/>
    </g>
    <ellipse id="Ellipse_2" data-name="Ellipse 2" cx="7.741" cy="7.734" rx="7.741" ry="7.734" transform="translate(1415.164 693.062)" fill="#fff"/>
    <ellipse id="Ellipse_3" data-name="Ellipse 3" cx="7.741" cy="7.734" rx="7.741" ry="7.734" transform="translate(1415.164 1296.313)" fill="#fff"/>
    <ellipse id="Ellipse_4" data-name="Ellipse 4" cx="7.741" cy="7.734" rx="7.741" ry="7.734" transform="translate(1717.076 994.688)" fill="#fff"/>
    <ellipse id="Ellipse_5" data-name="Ellipse 5" cx="7.741" cy="7.734" rx="7.741" ry="7.734" transform="translate(1113.253 994.688)" fill="#fff"/>
    <ellipse id="Ellipse_6" data-name="Ellipse 6" cx="7.741" cy="7.734" rx="7.741" ry="7.734" transform="translate(1201.504 781.229)" fill="#fff"/>
    <ellipse id="Ellipse_7" data-name="Ellipse 7" cx="7.741" cy="7.734" rx="7.741" ry="7.734" transform="translate(1628.824 1208.146)" fill="#fff"/>
    <ellipse id="Ellipse_8" data-name="Ellipse 8" cx="7.741" cy="7.734" rx="7.741" ry="7.734" transform="translate(1201.504 1208.146)" fill="#fff"/>
    <ellipse id="Ellipse_9" data-name="Ellipse 9" cx="7.741" cy="7.734" rx="7.741" ry="7.734" transform="translate(1628.824 781.229)" fill="#fff"/>
    <rect id="Rechteck_2" data-name="Rechteck 2" width="435.226" height="14.548" transform="translate(1206.149 531.384)" fill="#fff"/>
    <rect id="Rechteck_3" data-name="Rechteck 3" width="435.226" height="16.164" transform="translate(1205.747 1460.139)" fill="#fff"/>
    <rect id="Rechteck_4" data-name="Rechteck 4" width="434.815" height="16.179" transform="translate(1897.235 785.469) rotate(90)" fill="#fff"/>
    <rect id="Rechteck_5" data-name="Rechteck 5" width="434.815" height="14.561" transform="translate(965.984 785.469) rotate(90)" fill="#fff"/>
    <g id="Ellipse_10" data-name="Ellipse 10" transform="translate(972.764 552.705)" stroke="#2e2e2e" stroke-width="21" fill="url(#linear-gradient-2)">
      <ellipse cx="62.291" cy="62.232" rx="62.291" ry="62.232" stroke="none"/>
      <ellipse cx="62.291" cy="62.232" rx="51.791" ry="51.732" fill="none"/>
    </g>
    <g id="Ellipse_11" data-name="Ellipse 11" transform="translate(1747.757 552.705)" stroke="#2e2e2e" stroke-width="21" fill="url(#linear-gradient-2)">
      <ellipse cx="62.291" cy="62.232" rx="62.291" ry="62.232" stroke="none"/>
      <ellipse cx="62.291" cy="62.232" rx="51.791" ry="51.732" fill="none"/>
    </g>
    <g id="Ellipse_12" data-name="Ellipse 12" transform="translate(972.764 1326.966)" stroke="#2e2e2e" stroke-width="21" fill="url(#linear-gradient-2)">
      <ellipse cx="62.291" cy="62.232" rx="62.291" ry="62.232" stroke="none"/>
      <ellipse cx="62.291" cy="62.232" rx="51.791" ry="51.732" fill="none"/>
    </g>
    <g id="Ellipse_13" data-name="Ellipse 13" transform="translate(1747.757 1326.966)" stroke="#2e2e2e" stroke-width="21" fill="url(#linear-gradient-2)">
      <ellipse cx="62.291" cy="62.232" rx="62.291" ry="62.232" stroke="none"/>
      <ellipse cx="62.291" cy="62.232" rx="51.791" ry="51.732" fill="none"/>
    </g>
    <path id="Polygon_1" data-name="Polygon 1" d="M23.206,0,46.411,30.929H0Z" transform="translate(1173.305 1218.973) rotate(45)"/>
    <text id="pressurized_CABIN_" data-name="pressurizedCABIN !" transform="translate(1130.065 1266.941) rotate(45)" font-size="24" font-family="SegoeUI, Segoe UI"><tspan x="-72.662" y="0">PRESSURIZED</tspan><tspan x="-40.916" y="32">CABIN !</tspan><tspan x="0" y="64"></tspan></text>
    <path id="Pfad_1" data-name="Pfad 1" d="M975.617,1007.337h0c1.728-1.918,3.347-3.678,7.7-8.7,204.673-234.642-7.7-474.254-7.7-474.254" transform="translate(701.868 234.84)" fill="none" stroke="#000" stroke-width="23"/>
    <path id="Polygon_2" data-name="Polygon 2" d="M30.965,0,61.93,46.448H0Z" transform="matrix(0.799, -0.602, 0.602, 0.799, 1628.824, 745.766)"/>
    <path id="Polygon_3" data-name="Polygon 3" d="M23.212,0,46.423,30.924H0Z" transform="translate(1620.645 735.534) rotate(-149)"/>
    <path id="Polygon_4" data-name="Polygon 4" d="M23.224,0,46.448,30.965H0Z" transform="matrix(0.829, -0.559, 0.559, 0.829, 1582.377, 1293.868)"/>
    <rect id="Rechteck_6" data-name="Rechteck 6" width="568.348" height="16.585" transform="translate(1934.876 718.702) rotate(90)" fill="#262626"/>
    <rect id="Rechteck_7" data-name="Rechteck 7" width="568.348" height="16.585" transform="translate(927.461 718.702) rotate(90)" fill="#262626"/>
    <rect id="Rechteck_8" data-name="Rechteck 8" width="568.886" height="16.57" transform="translate(1138.917 1498.306)" fill="#262626"/>
    <rect id="Rechteck_9" data-name="Rechteck 9" width="568.886" height="16.57" transform="translate(1138.917 490.876)" fill="#262626"/>
    <text id="OPEN" transform="matrix(0.839, -0.545, 0.545, 0.839, 1612.068, 1340.557)" font-size="20" font-family="SegoeUI, Segoe UI"><tspan x="0" y="0">OPEN</tspan></text>
    <text id="LOCKED" transform="matrix(-0.839, -0.545, 0.545, -0.839, 1663.646, 700.251)" font-size="20" font-family="SegoeUI, Segoe UI"><tspan x="0" y="0">LOCKED</tspan></text>
  </g>
</svg>
