<svg xmlns="http://www.w3.org/2000/svg" width="1024" height="1024" viewBox="0 0 1024 1024">
  <g id="Strut" transform="translate(-2773.876 -61)">
    <g id="Rechteck_52" data-name="Rechteck 52" transform="translate(2790.461 77.57)" fill="#5a5a5a" stroke="#2e2e2e" stroke-width="64" opacity="0">
      <rect width="991.798" height="990.86" rx="75" stroke="none"/>
      <rect x="32" y="32" width="927.798" height="926.86" rx="43" fill="none"/>
    </g>
    <rect id="Rechteck_61" data-name="Rechteck 61" width="64" height="1250" transform="translate(3705.19 108.431) rotate(45)" fill="#2e2e2e"/>
    <rect id="Rechteck_62" data-name="Rechteck 62" width="64" height="1250" transform="translate(3750.445 992.314) rotate(135)" fill="#2e2e2e"/>
    <g id="Rechteck_63" data-name="Rechteck 63" transform="translate(2790.461 77.57)" fill="none" stroke="#2e2e2e" stroke-width="64">
      <rect width="991.798" height="990.86" rx="75" stroke="none"/>
      <rect x="32" y="32" width="927.798" height="926.86" rx="43" fill="none"/>
    </g>
    <rect id="Rechteck_53" data-name="Rechteck 53" width="568.348" height="16.585" transform="translate(3797.876 288.826) rotate(90)" fill="#262626"/>
    <rect id="Rechteck_54" data-name="Rechteck 54" width="568.348" height="16.585" transform="translate(2790.461 288.826) rotate(90)" fill="#262626"/>
    <rect id="Rechteck_55" data-name="Rechteck 55" width="568.886" height="16.57" transform="translate(3001.917 1068.43)" fill="#262626"/>
    <rect id="Rechteck_56" data-name="Rechteck 56" width="568.886" height="16.57" transform="translate(3001.917 61)" fill="#262626"/>
    <rect id="Rechteck_57" data-name="Rechteck 57" width="434.815" height="14.561" transform="translate(2828.984 355.593) rotate(90)" fill="#fff"/>
    <rect id="Rechteck_58" data-name="Rechteck 58" width="434.815" height="16.179" transform="translate(3760.235 355.593) rotate(90)" fill="#fff"/>
    <rect id="Rechteck_59" data-name="Rechteck 59" width="435.226" height="16.164" transform="translate(3068.747 1030.263)" fill="#fff"/>
    <rect id="Rechteck_60" data-name="Rechteck 60" width="435.226" height="14.548" transform="translate(3069.149 101.509)" fill="#fff"/>
    <g id="Ellipse_15" data-name="Ellipse 15" transform="translate(3007.876 295)" fill="none" stroke="#2e2e2e" stroke-width="64">
      <circle cx="278" cy="278" r="278" stroke="none"/>
      <circle cx="278" cy="278" r="246" fill="none"/>
    </g>
  </g>
</svg>
